<svg xmlns="http://www.w3.org/2000/svg" viewBox="0 0 15 20" fill="#497cbf"><path d="M13.043 20H1.739A1.739 1.739 0 0 1 0 18.261V1.739A1.739 1.739 0 0 1 1.739 0H10a.428.428 0 0 1 .337.172l4.273 4.273a.427.427 0 0 1 .172.337v13.479A1.739 1.739 0 0 1 13.043 20zM10.435 1.47v2.878h2.878zm3.478 3.747H10a.435.435 0 0 1-.435-.435V.87H1.739a.87.87 0 0 0-.87.87v16.521a.87.87 0 0 0 .87.87h11.3a.87.87 0 0 0 .87-.87zM11.3 16.522H3.478a.435.435 0 0 1 0-.87H11.3a.435.435 0 0 1 0 .87zm0-3.478H3.478a.435.435 0 0 1 0-.87H11.3a.435.435 0 0 1 0 .87zm0-3.478H3.478a.435.435 0 1 1 0-.87H11.3a.435.435 0 0 1 0 .87z"/></svg>