<svg xmlns="http://www.w3.org/2000/svg" viewBox="0 0 18 20" fill="#497cbf"><path d="M16.591 7.154h-.48V4.837a.339.339 0 0 0 0-.044.384.384 0 0 0-.093-.254L12.158.134a.383.383 0 0 0-.078-.066l-.029-.017a.412.412 0 0 0-.077-.033l-.022-.007a.394.394 0 0 0-.09-.011H2.385A.785.785 0 0 0 1.6.784v6.37h-.48A1.121 1.121 0 0 0 0 8.275V14.1a1.121 1.121 0 0 0 1.121 1.121H1.6v3.991a.785.785 0 0 0 .785.788h12.942a.785.785 0 0 0 .784-.784v-3.991h.48a1.121 1.121 0 0 0 1.121-1.125V8.275a1.121 1.121 0 0 0-1.121-1.121zM2.385.785h9.085V4.8a.392.392 0 0 0 .392.392h3.464v1.962H2.385zm9.878 11.466a2.36 2.36 0 0 0 .79-.137l.143.741a2.706 2.706 0 0 1-1.076.181 1.994 1.994 0 0 1-2.2-2.1 2.138 2.138 0 0 1 2.289-2.227 2.476 2.476 0 0 1 1.033.187l-.193.753a2.041 2.041 0 0 0-.8-.156 1.261 1.261 0 0 0-1.337 1.387 1.252 1.252 0 0 0 1.351 1.371zm-2.769-1.418a2 2 0 0 1-2.059 2.208 1.955 1.955 0 0 1-1.972-2.134A2.03 2.03 0 0 1 7.5 8.711a1.954 1.954 0 0 1 1.994 2.122zm-8.168 2.121V8.835a8.483 8.483 0 0 1 1.281-.087 2.694 2.694 0 0 1 1.717.452 1.854 1.854 0 0 1 .71 1.58 2.126 2.126 0 0 1-.7 1.7 3.011 3.011 0 0 1-1.935.541 8.3 8.3 0 0 1-1.073-.067zm14 6.049H2.385v-3.778h12.942V19zm.719-6.031l-.38-.759c-.156-.292-.255-.51-.373-.753h-.012c-.087.243-.193.46-.323.753l-.348.759h-1.083l1.213-2.121-1.169-2.072h1.089l.367.765c.124.255.218.46.317.7h.012c.1-.267.181-.454.286-.7L16 8.779h1.083L15.9 10.826l1.244 2.146h-1.098z"/><path d="M4.026 10.807a1.2 1.2 0 0 0-1.319-1.331 1.966 1.966 0 0 0-.429.037v2.743a1.758 1.758 0 0 0 .33.019 1.3 1.3 0 0 0 1.418-1.468zm2.439.081c0 .821.386 1.4 1.02 1.4s1.007-.609 1.007-1.424c0-.753-.361-1.4-1.014-1.4s-1.013.61-1.013 1.424z"/></svg>