<svg xmlns="http://www.w3.org/2000/svg" viewBox="0 0 18 20" fill="#497cbf"><path d="M4.68 10.248c0-.539-.374-.86-1.034-.86a2.26 2.26 0 0 0-.546.052v1.729a2.051 2.051 0 0 0 .443.034c.702-.003 1.137-.356 1.137-.955zm4.084-.843a2.758 2.758 0 0 0-.6.052v3.832a2.4 2.4 0 0 0 .461.026 1.816 1.816 0 0 0 1.981-2.051 1.68 1.68 0 0 0-1.842-1.859z"/><path d="M16.591 7.154h-.48V4.837a.338.338 0 0 0 0-.044.385.385 0 0 0-.093-.254L12.158.134a.389.389 0 0 0-.078-.066l-.029-.017a.4.4 0 0 0-.077-.033l-.022-.007a.391.391 0 0 0-.09-.011H2.385A.785.785 0 0 0 1.6.784v6.37h-.48A1.121 1.121 0 0 0 0 8.275V14.1a1.121 1.121 0 0 0 1.121 1.121H1.6v3.99a.785.785 0 0 0 .786.789h12.941a.785.785 0 0 0 .784-.784v-3.99h.48a1.121 1.121 0 0 0 1.121-1.126V8.275a1.121 1.121 0 0 0-1.121-1.121zM2.385.784h9.085V4.8a.392.392 0 0 0 .392.392h3.464v1.962H2.385zm9.628 10.436a2.968 2.968 0 0 1-.974 2.372 4.2 4.2 0 0 1-2.7.756 11.511 11.511 0 0 1-1.5-.087V8.51a11.849 11.849 0 0 1 1.79-.121 3.77 3.77 0 0 1 2.4.625 2.592 2.592 0 0 1 .985 2.207zM1.786 14.288V8.51a10.885 10.885 0 0 1 1.79-.121 2.808 2.808 0 0 1 1.79.469 1.711 1.711 0 0 1 .625 1.355 1.87 1.87 0 0 1-.538 1.39 2.715 2.715 0 0 1-1.9.617 3.316 3.316 0 0 1-.452-.026v2.094H1.786zM15.327 19H2.385v-3.775h12.942V19zm1.136-9.485h-2.251v1.338h2.1v1.077h-2.1v2.355h-1.329V8.432h3.58z"/></svg>