<svg xmlns="http://www.w3.org/2000/svg" viewBox="0 0 18 20" fill="#497cbf"><path d="M6.975 9.569a1.7 1.7 0 0 0-.408.039V10.9a1.487 1.487 0 0 0 .33.026c.524 0 .848-.265.848-.712 0-.405-.278-.645-.77-.645z"/><path d="M16.591 7.154h-.48V4.836a.339.339 0 0 0 0-.044.384.384 0 0 0-.093-.254L12.158.134a.383.383 0 0 0-.078-.066l-.029-.017a.412.412 0 0 0-.077-.033l-.022-.007a.394.394 0 0 0-.09-.011H2.385A.785.785 0 0 0 1.6.784v6.37h-.48A1.121 1.121 0 0 0 0 8.275V14.1a1.121 1.121 0 0 0 1.121 1.121H1.6v3.991a.785.785 0 0 0 .785.788h12.942a.785.785 0 0 0 .784-.784v-3.991h.48a1.121 1.121 0 0 0 1.121-1.125V8.275a1.121 1.121 0 0 0-1.121-1.121zM2.385.784h9.085V4.8a.392.392 0 0 0 .392.392h3.464v1.962H2.385zm6.635 8.9v-.826h3.351v.828h-1.19v3.532h-.99V9.686zm-.3.5a1.392 1.392 0 0 1-.4 1.035 2.022 2.022 0 0 1-1.417.46 2.439 2.439 0 0 1-.337-.02v1.559H5.59v-4.3a8.076 8.076 0 0 1 1.333-.091 2.094 2.094 0 0 1 1.333.349 1.275 1.275 0 0 1 .465 1.008zm-6.89 3.034v-4.3a8.071 8.071 0 0 1 1.332-.091 2.093 2.093 0 0 1 1.338.348 1.275 1.275 0 0 1 .466 1.009 1.393 1.393 0 0 1-.4 1.035 2.022 2.022 0 0 1-1.417.46 2.481 2.481 0 0 1-.337-.02v1.559h-.98zM15.327 19H2.385v-3.775h12.942V19zm-.018-5.785l-.395-.789c-.161-.3-.265-.53-.388-.783h-.013c-.09.252-.2.479-.336.783l-.362.789h-1.126l1.261-2.206-1.216-2.151h1.132l.381.8c.13.265.227.479.33.724h.013c.1-.278.188-.472.3-.724l.369-.8h1.126l-1.229 2.128 1.294 2.232z"/><path d="M3.986 10.209c0-.4-.278-.64-.77-.64a1.7 1.7 0 0 0-.408.039V10.9a1.5 1.5 0 0 0 .33.026c.524-.005.848-.27.848-.717z"/></svg>