<svg xmlns="http://www.w3.org/2000/svg" viewBox="0 0 18 20" fill="#497cbf"><path d="M16.591 7.154h-.48V4.837a.377.377 0 0 0 0-.044.385.385 0 0 0-.093-.254L12.158.134a.389.389 0 0 0-.078-.066l-.029-.017a.411.411 0 0 0-.077-.033l-.022-.007a.393.393 0 0 0-.09-.011H2.385A.785.785 0 0 0 1.6.784v6.37h-.48A1.121 1.121 0 0 0 0 8.275V14.1a1.121 1.121 0 0 0 1.121 1.121H1.6v3.99a.785.785 0 0 0 .786.789h12.941a.785.785 0 0 0 .784-.784v-3.99h.48a1.121 1.121 0 0 0 1.121-1.126V8.275a1.121 1.121 0 0 0-1.121-1.121zM2.385.784h9.085V4.8a.392.392 0 0 0 .392.392h3.464v1.962H2.385zm8.8 12.082V14H7.444V8.014H8.8v4.853zM1.552 14l1.733-3.03-1.671-2.956H3.17l.524 1.093c.178.364.311.658.454 1h.018c.143-.382.258-.649.409-1l.505-1.093h1.547l-1.689 2.924L6.716 14H5.152l-.543-1.08c-.222-.418-.364-.729-.533-1.075h-.018c-.125.347-.275.658-.462 1.075L3.1 14H1.552zm13.775 5H2.385v-3.775h12.942V19zm-1.875-4.91a3.92 3.92 0 0 1-1.7-.365l.275-1.12a3.46 3.46 0 0 0 1.5.373c.622 0 .951-.258.951-.649 0-.373-.284-.587-1-.844-1-.347-1.644-.9-1.644-1.769 0-1.022.853-1.8 2.267-1.8a3.676 3.676 0 0 1 1.528.3l-.3 1.093a2.846 2.846 0 0 0-1.253-.284c-.586 0-.871.266-.871.578 0 .382.337.551 1.111.845 1.058.391 1.555.942 1.555 1.786-.002 1.006-.771 1.859-2.419 1.859z"/></svg>