<svg xmlns="http://www.w3.org/2000/svg" viewBox="0 0 18 20" fill="#497cbf"><path d="M16.591 7.154h-.48V4.837a.336.336 0 0 0 0-.044.385.385 0 0 0-.093-.254L12.158.134a.386.386 0 0 0-.078-.066l-.029-.017a.409.409 0 0 0-.077-.033l-.022-.007a.39.39 0 0 0-.09-.011H2.385A.785.785 0 0 0 1.6.784v6.37h-.48A1.121 1.121 0 0 0 0 8.275V14.1a1.121 1.121 0 0 0 1.121 1.121H1.6v3.991a.785.785 0 0 0 .785.788h12.942a.785.785 0 0 0 .784-.784v-3.991h.48a1.121 1.121 0 0 0 1.121-1.125V8.275a1.121 1.121 0 0 0-1.121-1.121zM2.385.785h9.085V4.8a.392.392 0 0 0 .392.392h3.464v1.962H2.385zm8.264 7.373v5.856H9.32V8.158zM4.193 9.252V8.158h4.249v.765l-2.728 3.962v.034h2.771v1.095H3.932V13.3l2.79-4.013v-.035zM15.327 19H2.385v-3.775h12.942V19zm.136-7.674a2.715 2.715 0 0 1-1.9.617 3.321 3.321 0 0 1-.452-.026v2.094H11.8V8.236a10.8 10.8 0 0 1 1.79-.122 2.81 2.81 0 0 1 1.79.469A1.713 1.713 0 0 1 16 9.939a1.872 1.872 0 0 1-.537 1.39z"/><path d="M13.656 9.113a2.24 2.24 0 0 0-.548.052v1.729a2.023 2.023 0 0 0 .443.035c.7 0 1.138-.357 1.138-.956.001-.538-.373-.86-1.033-.86z"/></svg>