<svg viewBox="0 0 107 120" xmlns="http://www.w3.org/2000/svg"><g fill="#405eae"><path d="M11.28 0h65c3.56.89 5.88 3.86 8.36 6.32 5.16 5.19 10.34 10.36 15.53 15.53 2.58 2.62 5.7 5.02 6.83 8.69v78.79c-.73 5.44-5.12 9.84-10.53 10.67H10.68C5.26 119.28.83 114.92 0 109.53V11.3C.38 5.36 5.35.39 11.28 0M8 12.96c.03 31.71-.07 63.43.05 95.14-.12 2.55 2.5 4.26 4.86 3.9h81.17c2.36.36 4.98-1.36 4.87-3.91.12-24.02.01-48.06.05-72.09-5.7-.08-11.41.16-17.11-.1-4.7-.22-8.54-3.71-10.35-7.88-3.45-.09-6.92.17-10.37-.17-1.56-.65-1.59-3.02-.04-3.69 3.28-.35 6.58-.11 9.87-.15V8c-19.7.04-39.41-.08-59.12.05C9.31 7.94 7.64 10.6 8 12.96m67-4.95c.04 5.36-.08 10.71.03 16.07-.15 4.24 3.71 8.02 7.93 7.89 5.34.12 10.69-.02 16.03.03C91 24 83 16 75 8.01z"/><path d="M18.33 20.35c8.83-.83 17.82-.09 26.72-.38 2.53-.15 6.19-.1 6.8 3.05.35 7.99.06 16.01.15 24.01.37 2.39-1.36 5.04-3.94 4.92-9.37.09-18.76.09-28.13 0-2.08.1-3.98-1.79-3.88-3.87-.13-7.71-.02-15.43-.05-23.15-.16-1.82.52-3.84 2.33-4.58M24 28v16h20V28H24zm37.09 20.16c8.3-.4 16.63-.02 24.94-.18 1.64.2 3.86-.55 4.88 1.17.38 1.25-.34 2.94-1.84 2.78-9.04.13-18.09.12-27.13 0-2.08.23-2.67-2.99-.85-3.77zM17.07 72.15c23.99-.31 48.01-.14 72-.08 2.53-.27 2.52 4.14-.02 3.86-23.68.12-47.38.11-71.07.01-2.08.23-2.72-2.93-.91-3.79zm.05 24.01c23.28-.38 46.59-.03 69.87-.18 1.33.15 3.15-.37 3.85 1.16.86 1.78-1.13 3.29-2.78 2.85-23.34-.02-46.69.09-70.03-.05-2.14.28-2.83-3-.91-3.78z"/></g></svg>