<svg fill="none" height="70" width="70" xmlns="http://www.w3.org/2000/svg" xmlns:xlink="http://www.w3.org/1999/xlink"><linearGradient id="a"><stop offset="0" stop-color="#3b4898"/><stop offset="1" stop-color="#22254d"/></linearGradient><linearGradient id="c" gradientUnits="userSpaceOnUse" x1="3" x2="27.3" xlink:href="#a" y1="57.3" y2="57.3"/><linearGradient id="d" gradientUnits="userSpaceOnUse" x1="28.1" x2="31.4" xlink:href="#a" y1="63.8" y2="63.8"/><linearGradient id="e" gradientUnits="userSpaceOnUse" x1="55.1" x2="69.3" xlink:href="#a" y1="20.6" y2="20.6"/><linearGradient id="f" gradientUnits="userSpaceOnUse" x1="40.8" x2="43.2" xlink:href="#a" y1="31.7" y2="31.7"/><linearGradient id="g" gradientUnits="userSpaceOnUse" x1="25.7" x2="28" xlink:href="#a" y1="31.7" y2="31.7"/><linearGradient id="h" gradientUnits="userSpaceOnUse" x1="0" x2="70" xlink:href="#a" y1="33.4" y2="33.4"/><clipPath id="b"><path d="M0 0h70v70H0z"/></clipPath><g clip-path="url(#b)"><path d="M3 53.1L4 51l23.3 10.5-1 2z" fill="url(#c)"/><path d="M28 64.4l1-2.2 2.4 1-1 2.2z" fill="url(#d)"/><path d="M55.1 18.6l1-2 13.2 5.8-1 2.2z" fill="url(#e)"/><path d="M40.8 30.5h2.4v2.3h-2.4z" fill="url(#f)"/><path d="M25.7 30.5H28v2.3h-2.3z" fill="url(#g)"/><path d="M70 29.3c0-.4-.3-.8-.7-1l-17.8-8c1.1-1.4 2-2.9 2.6-4.5 1-2 1.9-4 4-5.2a1.2 1.2 0 00.1-1.9s-7.4-7.1-16-2.5a10.6 10.6 0 00-5.2 7.6l-1.5-.7h-1l-2.7 1.2c-1-1.7-2.4-3-4-4-8.6-4.7-16 2.4-16 2.4a1.2 1.2 0 00.2 1.9c2 1.2 3 3.2 3.9 5.2l.6 1.4-15.8 7a1.2 1.2 0 000 2.2l6.7 3-6.7 3a1.2 1.2 0 000 2.2l6.7 3-6.7 3a1.2 1.2 0 000 2.1L34.5 62h1l33.8-15.2a1.2 1.2 0 000-2l-6.7-3.1 6.7-3a1.2 1.2 0 000-2.2l-6.7-3 6.7-3c.4-.2.7-.6.7-1zm-26.6-21c5.3-3 10-.3 12.1 1.2a14.7 14.7 0 00-3.5 5.3c-1 2.2-2 4.3-4.2 5.6-1.3.7-2.8.7-4.2.2a8 8 0 01-1.2-.5c1.7-3.1 3.9-6 6.5-8.3l-1.6-1.7a35 35 0 00-6.8 8.6c-.4-.5-.8-1-1-1.5-1-2.3 0-6.8 3.9-9zm-29 5.2c2.2-1.5 7-4 12.2-1.2 3.8 2.1 4.8 6.6 3.9 9-.2.5-.6 1-1 1.4a35 35 0 00-6.8-8.6L21 15.8c2.6 2.4 4.8 5.2 6.6 8.3l-1.3.5c-1.4.6-3 .5-4.2-.2C19.9 23.1 19 21 18 19c-.8-2-2-3.9-3.5-5.4zM66 45.7L35 59.6l-31-14 6.3-2.7 24.2 10.8c.3.2.7.2 1 0L59.7 43zm0-8.2L35 51.4 4 37.5l6.3-2.8 24.2 10.9h1l24.2-10.9zm-31 5.7L4 29.3l13.6-6c.9 1.2 2 2.3 3.4 3.1 1 .6 2.2 1 3.4 1a8.7 8.7 0 004.3-1.2c.8 1.6 1.4 3.4 2 5.2l2.2-.7c-.6-2-1.3-4-2.3-5.9 1-.7 1.6-1.6 2-2.7.7-1.8.7-3.8.1-5.6l2.3-1 1.9.8c0 .6.2 1.2.4 1.8.5 1 1.2 2 2 2.7a35 35 0 00-3 9.9l-.2.8 2.3.4.2-.9c.5-3 1.4-6 2.7-8.9l1.5.7c1 .3 1.9.5 2.8.5 1.2 0 2.4-.3 3.4-.9l.6-.4L66 29.3z" fill="url(#h)"/></g></svg>