<svg fill="none" height="45" width="169" xmlns="http://www.w3.org/2000/svg" xmlns:xlink="http://www.w3.org/1999/xlink"><linearGradient id="a" gradientUnits="userSpaceOnUse" x1="36.5" x2="28.5" y1="20.9" y2="4"><stop offset="0" stop-color="#c21718"/><stop offset="1" stop-color="#ea516b"/></linearGradient><linearGradient id="b" gradientUnits="userSpaceOnUse" x1="0" x2="41.6" y1="23.5" y2="23.5"><stop offset="0" stop-color="#4e55a1"/><stop offset="1" stop-color="#22254d"/></linearGradient><linearGradient id="c" gradientUnits="userSpaceOnUse" x1="37.1" x2="29.4" y1="20.1" y2="4"><stop offset="0" stop-color="#c21718"/><stop offset="1" stop-color="#e72d48"/></linearGradient><linearGradient id="d" gradientUnits="userSpaceOnUse" x1="23.5" x2="41.1" y1="24.8" y2="24.8"><stop offset="0" stop-color="#e72d48"/><stop offset="1" stop-color="#8d1a21"/></linearGradient><linearGradient id="e" gradientUnits="userSpaceOnUse" x1=".7" x2="40.5" y1="30.2" y2="30.2"><stop offset="0" stop-color="#3b4898"/><stop offset="1" stop-color="#22254d"/></linearGradient><clipPath id="f"><path d="m0 0h169v45h-169z"/></clipPath><g clip-path="url(#f)"><path d="m158.3 26.8h5.5c.5 0 1 0 1.3-.2.3-.1.5-.4.6-.7.2-.3.2-.7.2-1.2 0-.7-.1-1.3-.4-1.6s-.9-.5-1.7-.5h-5.5zm-3.3 6.8v-13.6h9.4a8 8 0 0 1 2.2.2 3.4 3.4 0 0 1 2.3 2.3c.2.7.3 1.4.3 2.3a7 7 0 0 1 -.5 2.8c-.3.7-.8 1.3-1.5 1.6s-1.7.5-2.8.5h-6.1v4h-3.3zm-16.3 0v-13.6h14v2.6h-10.7v3h10.4v2.4h-10.4v3h10.8v2.6h-14z" fill="#3b4898"/><path d="m122.3 19.9h14.7v2.7h-5.8v11h-3.2v-11h-5.7v-2.6z" fill="#e7363c"/><path d="m107.8 28.6c0 .6.1 1 .3 1.4.1.3.4.6.7.7l1.6.2h4.3a5 5 0 0 0 1.7-.2c.3-.1.6-.3.7-.7l.2-1.4v-3.6c0-.7 0-1.2-.2-1.6-.2-.3-.5-.6-.8-.7l-1.6-.2h-4.3c-.6 0-1.2 0-1.6.2-.3.2-.6.4-.7.8-.2.3-.3.8-.3 1.5v3.5zm12.8.3c0 1 0 1.7-.2 2.3l-.8 1.4-1.6.8c-.6.2-1.4.2-2.4.2h-6c-1 0-1.7 0-2.3-.2-.7-.2-1.2-.5-1.6-.9-.4-.3-.7-.8-.9-1.4s-.3-1.3-.3-2.2v-4.1c0-1 .1-1.8.3-2.4s.5-1.1.9-1.5.9-.6 1.5-.8l2.4-.2h6a8 8 0 0 1 2.9.4 3 3 0 0 1 1.6 1.5c.3.7.5 1.7.5 3zm-50.3 4.7v-13.6h3.2v5.3h8.5v-5.3h3.3v13.7h-3.3v-5.7h-8.5v5.7h-3.2zm17.1 0v-13.6h3.3v5.3h8.3v-5.3h3.3v13.7h-3.3v-5.7h-8.4v5.7h-3.3zm-22.7 0v-11h-.5l-8.2 11h-5.7v-13.6h3.3v11h.5l8.3-11h5.6v13.7h-3.3z" fill="#3b4898"/><path d="m15 .9c-.4 0-.7.3-.7.7v10.1a12.1 12.1 0 0 1 18.2 10.5c0 4.9-4.8 9.9-9 11.8 6.4-.7 14.5-5.5 17-11.4.6-1.4 1-3 .2-5.6a21 21 0 0 0 -3-6l-.1-.2h8.2c.4 0 .7-.4.7-.7v-.1-8.3-.1c0-.4-.3-.7-.7-.7z" fill="url(#a)"/><path d="m2.2 7.6c0 1.2.5 2.4 1.3 3.3.9.8 2 1.3 3.3 1.3a4.6 4.6 0 1 0 -4.6-4.6zm-1.3 9.4a21 21 0 0 0 9 24 20.4 20.4 0 0 0 13.6 2.9 20.6 20.6 0 0 0 16.9-13.7c.9-2.4 1.1-5.2 1.2-6.6a21.5 21.5 0 0 1 -25.5 9.9h-.1a12.1 12.1 0 0 1 -6.2-17.2h-.4-7.6c-.3 0-.7.1-.9.7" fill="url(#b)"/><path d="m15 1.6v8.9a12.8 12.8 0 0 1 18.3 11.7c0 3-2.1 7.2-5.8 10.2a21 21 0 0 0 12.3-10.1c.5-1.2.9-2.7.2-5-.6-2.1-1.6-4-2.9-5.9l-.1-.1-.8-1.3h9.6v-8.4z" fill="url(#c)"/><path d="m30.2 27.3c-1.3 1.1-5.3 6-6.7 6.7 6.4-.7 14.5-5.5 17-11.4.4-1 1.2-3.4-.3-7 2.2 6.3-6.1 12.2-10 11.7z" fill="url(#d)"/><path d="m25 16.5c-.8-.8-1.7-1.5-2.5-2l2-2c1 .4 2 1 2.8 1.7zm5.2 1.7-2 2-2-2.6 2.3-2.3c.7 1 1.3 1.9 1.7 2.9zm.2 7.5a13 13 0 0 0 -1.4-4l1.8-1.8c.4 2 .3 4-.4 5.8zm-2 3.3-3.3-3.3 2.8-2.9c1.1 2.5 1.4 4.7.5 6.2zm-6.8-6.8 3.4-3.4c.8.8 1.5 1.7 2 2.6l-3 3.1zm-3.4-3.4 3.1-3.2 2.6 2-3.4 3.5zm-4.5-4.6c1.5-.8 3.7-.6 6.1.6l-2.8 2.8zm9-2.3-1.7 1.7c-1.4-.7-2.7-1.2-4-1.3 1.8-.7 3.8-.8 5.7-.4zm-6.7 6.9-3 2.8c-1.2-2.4-1.4-4.7-.6-6.2l3.4 3.4zm3.4 3.4-3.4 3.4c-.8-.8-1.4-1.7-2-2.5l3.1-3.2zm3.5 3.5-3.2 3.1-2.6-2 3.5-3.4zm4.5 4.5c-1.5.8-3.8.6-6.2-.6l2.8-2.8zm-9.1 2.3 1.7-1.7c1.4.7 2.8 1.2 4 1.4-1.8.6-3.8.7-5.7.3zm-4.6-2.3 2.3-2.2c.8.8 1.7 1.5 2.6 2l-2 2c-1-.3-2-1-2.9-1.7zm-2.9-4 2-2 2 2.6-2.2 2.3c-.8-.9-1.4-1.8-1.8-2.9zm-.2-7.5a13 13 0 0 0 1.4 4l-1.7 1.8c-.4-2-.3-4 .3-5.8zm18-5.7c-4.6-4-11.5-4-16 0l-.6.6-.6.6c-4 4.6-4 11.5 0 16l.6.6.5.6c4.6 4 11.5 4 16 0h.1l.6-.6.5-.5c4-4.6 4-11.5 0-16.1l-.5-.6z" fill="#b2b2b2"/><path d="m1.6 17.2a20.3 20.3 0 0 0 8.7 23.1 19.6 19.6 0 0 0 13 2.8 19.8 19.8 0 0 0 16.5-13.1c.4-1.1.7-2.4.8-3.5a22.3 22.3 0 0 1 -24.7 7.7l-.6-.2a12.8 12.8 0 0 1 -6.5-17h-7z" fill="url(#e)"/></g></svg>