<svg fill="none" height="45" width="169" xmlns="http://www.w3.org/2000/svg" xmlns:xlink="http://www.w3.org/1999/xlink"><linearGradient id="a" gradientUnits="userSpaceOnUse" x1="36.4" x2="28.4" y1="20.9" y2="4.1"><stop offset="0" stop-color="#c21718"/><stop offset="1" stop-color="#ea516b"/></linearGradient><linearGradient id="b" gradientUnits="userSpaceOnUse" x1="0" x2="41.4" y1="23.5" y2="23.5"><stop offset="0" stop-color="#4e55a1"/><stop offset="1" stop-color="#22254d"/></linearGradient><linearGradient id="c" gradientUnits="userSpaceOnUse" x1="36.9" x2="29.3" y1="20.1" y2="4.1"><stop offset="0" stop-color="#c21718"/><stop offset="1" stop-color="#e72d48"/></linearGradient><linearGradient id="d" gradientUnits="userSpaceOnUse" x1="23.4" x2="40.9" y1="24.8" y2="24.8"><stop offset="0" stop-color="#e72d48"/><stop offset="1" stop-color="#8d1a21"/></linearGradient><linearGradient id="e" gradientUnits="userSpaceOnUse" x1=".7" x2="40.4" y1="30.1" y2="30.1"><stop offset="0" stop-color="#3b4898"/><stop offset="1" stop-color="#22254d"/></linearGradient><clipPath id="f"><path d="m0 0h169v45h-169z"/></clipPath><g clip-path="url(#f)"><path d="m15 1c-.5 0-.8.3-.8.7v10a12 12 0 0 1 18.1 10.4c0 5-4.8 10-8.9 11.8 6.4-.7 14.4-5.4 17-11.3.5-1.4.9-3 .1-5.5-.6-2.2-1.6-4.2-3-6l-.1-.3h8.2c.4 0 .7-.3.7-.7v-8.3-.1c0-.4-.3-.7-.7-.7z" fill="url(#a)"/><path d="m2.2 7.7c0 1.2.4 2.4 1.3 3.2.9 1 2 1.4 3.3 1.4a4.6 4.6 0 1 0 -4.6-4.6zm-1.3 9.3a20.8 20.8 0 0 0 16.6 26.6 20.8 20.8 0 0 0 24-20 21.4 21.4 0 0 1 -25.5 9.8 12 12 0 0 1 -6.2-17h-.4-7.6c-.3 0-.7 0-.9.6" fill="url(#b)"/><path d="m15 1.7v8.9a12.8 12.8 0 0 1 18 11.6c0 3-2 7.1-5.7 10.1 5.8-2 10.6-6.3 12.2-10 .5-1.2 1-2.7.2-5-.6-2-1.6-4-2.9-5.8v-.2l-.9-1.2h9.6v-8.4z" fill="url(#c)"/><path d="m30 27.2c-1.3 1.2-5.3 6.1-6.6 6.7 6.4-.7 14.4-5.4 17-11.3.3-1 1.1-3.4-.4-7 2.2 6.3-6 12.2-10 11.6z" fill="url(#d)"/><path d="m25 16.5-2.6-2 2-2c1 .4 2 1 2.8 1.7zm5 1.7-2 2c-.5-.9-1.2-1.7-2-2.6l2.3-2.2c.8.8 1.4 1.8 1.8 2.8zm.3 7.5c-.2-1.3-.7-2.7-1.4-4l1.7-1.8c.4 2 .3 4-.3 5.8zm-2 3.3-3.4-3.4 2.8-2.8c1.2 2.4 1.5 4.7.6 6.2zm-6.8-6.8 3.4-3.4c.8.8 1.5 1.7 2 2.6l-3.1 3zm-3.4-3.4 3.1-3.1c.9.5 1.8 1.2 2.6 2l-3.4 3.3-2.4-2.2zm-4.5-4.5c1.5-.9 3.8-.6 6.2.5l-2.8 2.8zm9-2.3-1.6 1.7c-1.4-.8-2.7-1.2-4-1.4 1.8-.6 3.8-.8 5.7-.3zm-6.8 6.8-2.8 2.8c-1.1-2.4-1.4-4.7-.5-6.2zm3.4 3.4-3.4 3.4-2-2.6 3.2-3zm3.5 3.4-3.2 3.1c-.8-.5-1.7-1.2-2.5-2l3.4-3.4zm4.5 4.5c-1.5.9-3.8.6-6.2-.5l2.8-2.8zm-9 2.3 1.6-1.7c1.4.8 2.8 1.2 4 1.4-1.8.6-3.8.8-5.7.3zm-4.6-2.2 2.2-2.3 2.6 2-2 2c-1-.4-2-1-2.8-1.7zm-3-4 2-2 2 2.6-2.2 2.2c-.7-.8-1.3-1.8-1.7-2.8zm-.1-7.5c.2 1.3.6 2.7 1.3 4l-1.7 1.8c-.4-2-.3-4 .4-5.8zm17.8-5.6c-4.5-4.1-11.3-4.1-15.9-.1l-.6.5-.6.6c-4 4.6-4 11.4 0 16l.6.6.6.5c4.6 4 11.4 4 16 0l.5-.5.6-.6c4-4.6 4-11.4 0-16l-.6-.6-.5-.5z" fill="#b2b2b2"/><path d="m1.6 17.2a20 20 0 0 0 16 25.7 20 20 0 0 0 22.8-16.4 22.2 22.2 0 0 1 -24.7 7.5l-.5-.2a12.7 12.7 0 0 1 -6.6-16.8h-6.8l-.2.1" fill="url(#e)"/><path d="m56.3 33.3h-4.2v-13h4.2zm20.7 0h-4.3l-8.2-8.6v8.6h-4.3v-13h4.3l8.2 8.5v-8.6h4.3v13zm20.3 0h-4.2l-8.3-8.6v8.6h-4.2v-13h4.2l8.3 8.5v-8.6h4.2v13zm20.5-6.3c0 1.3-.3 2.4-1 3.4s-1.8 1.7-3 2.2c-1.4.6-3 .8-4.7.8s-3.2-.2-4.5-.7a7 7 0 0 1 -3.1-2.3c-.7-1-1.1-2-1.1-3.3v-.6c0-1.3.3-2.5 1-3.4.8-1 1.8-1.8 3.1-2.3 1.4-.5 2.9-.8 4.6-.8s3.2.3 4.6.8c1.3.5 2.3 1.3 3 2.3.8 1 1.1 2 1.1 3.3zm-4.2-.6c0-1.3-.4-2.4-1.2-3-.8-.8-1.9-1.1-3.3-1.1s-2.5.3-3.3 1c-.7.7-1.1 1.7-1.1 3v.7a4 4 0 0 0 1.1 3.1c.8.8 1.9 1.1 3.3 1.1 1.5 0 2.5-.3 3.3-1s1.2-1.8 1.2-3.1zm35.5 1.2h-8v3.5h9.4v2.2h-13.7v-13h13.7v2h-9.5v3.2h8.1zm11.5.9h-3.4v4.8h-4.2v-13h7.6c2.5 0 4.3.3 5.7 1 1.3.6 2 1.6 2 2.9a3 3 0 0 1 -1 2.2c-.6.6-1.5 1-2.7 1.4l4.4 5.3v.2h-4.5zm-3.4-2.2h3.5a5 5 0 0 0 2.4-.5c.6-.4.9-.8.9-1.4s-.3-1.1-.8-1.5c-.6-.3-1.4-.5-2.6-.5h-3.4z" fill="#3b4898"/><path d="m119 20h14.8v2.7h-5.8v11h-3.3v-11h-5.7z" fill="#e7363c"/></g></svg>