<svg xmlns="http://www.w3.org/2000/svg" viewBox="0 0 30.66 46.41"><path fill="#fff" fill-rule="evenodd" d="M18.51 29.76v-1.57a3.475 3.475 0 0 1 .81-2.3 21.727 21.727 0 0 1 4.05-3.06 17.681 17.681 0 0 0 5.55-5.15 11.684 11.684 0 0 0 1.74-6.44 9.839 9.839 0 0 0-3.91-8.22Q22.85.005 15.98.01A31.848 31.848 0 0 0-.01 4.38l4.27 8.36q6.225-3.285 10.86-3.29a5.494 5.494 0 0 1 3.05.76 2.314 2.314 0 0 1 1.17 2.04 4.317 4.317 0 0 1-1.09 2.89 16.392 16.392 0 0 1-3.59 2.83 12.953 12.953 0 0 0-4.37 4.05 9.815 9.815 0 0 0-1.23 5.09v2.65h9.45zM9.46 44.87a6.939 6.939 0 0 0 4.77 1.53 6.733 6.733 0 0 0 4.66-1.54 5.54 5.54 0 0 0 1.71-4.34 5.683 5.683 0 0 0-1.65-4.35 6.584 6.584 0 0 0-4.72-1.55 6.856 6.856 0 0 0-4.84 1.53 5.7 5.7 0 0 0-1.65 4.37 5.478 5.478 0 0 0 1.72 4.35z"/></svg>